<svg viewBox="0 0 24 24" xmlns="http://www.w3.org/2000/svg"><path d="m19.5 16.17h-7.26a2.53 2.53 0 0 0 -2.74 2.5 2.5 2.5 0 0 0 2.74 2.5h7.26z" fill="#669df6"/><circle cx="19.5" cy="18.67" fill="#4285f4" r="2.5"/><path d="m12 9.5h-7.26a2.53 2.53 0 0 0 -2.74 2.5 2.5 2.5 0 0 0 2.74 2.5h7.26z" fill="#669df6"/><circle cx="12" cy="12" fill="#4285f4" r="2.5"/><path d="m19.5 2.83h-7.26a2.54 2.54 0 0 0 -2.74 2.5 2.5 2.5 0 0 0 2.74 2.5h7.26z" fill="#669df6"/><circle cx="19.5" cy="5.33" fill="#4285f4" r="2.5"/></svg>