<svg xmlns="http://www.w3.org/2000/svg" width="48" height="48" viewBox="0 0 48 48"><g display="none"><rect width="48" height="48" fill="#fff" color="#000" overflow="visible" style="isolation:auto;mix-blend-mode:normal"/><rect style="isolation:auto;mix-blend-mode:normal" width="48" height="48" x="-46.987" fill="#fff" color="#000" overflow="visible"/><rect width="48" height="48" x="-102.987" fill="#fff" color="#000" overflow="visible" style="isolation:auto;mix-blend-mode:normal"/><rect style="isolation:auto;mix-blend-mode:normal" width="48" height="48" y="57.592" fill="#fff" color="#000" overflow="visible"/><rect width="48" height="48" x="-46.987" y="57.592" fill="#fff" color="#000" overflow="visible" style="isolation:auto;mix-blend-mode:normal"/><rect style="isolation:auto;mix-blend-mode:normal" width="48" height="48" x="-102.987" y="57.592" fill="#fff" color="#000" overflow="visible"/><rect width="48" height="48" y="117.592" fill="#fff" color="#000" overflow="visible" style="isolation:auto;mix-blend-mode:normal"/><rect style="isolation:auto;mix-blend-mode:normal" width="48" height="48" x="-46.987" y="117.592" fill="#fff" color="#000" overflow="visible"/><rect width="48" height="48" x="-102.987" y="117.592" fill="#fff" color="#000" overflow="visible" style="isolation:auto;mix-blend-mode:normal"/><rect style="isolation:auto;mix-blend-mode:normal" width="48" height="48" y="173.592" fill="#fff" color="#000" overflow="visible"/><rect width="48" height="48" x="-46.987" y="173.592" fill="#fff" color="#000" overflow="visible" style="isolation:auto;mix-blend-mode:normal"/><rect style="isolation:auto;mix-blend-mode:normal" width="48" height="48" x="-102.987" y="173.592" fill="#fff" color="#000" overflow="visible"/><rect width="48" height="48" y="231.592" fill="#fff" color="#000" overflow="visible" style="isolation:auto;mix-blend-mode:normal"/><rect style="isolation:auto;mix-blend-mode:normal" width="48" height="48" x="-46.987" y="231.592" fill="#fff" color="#000" overflow="visible"/><rect width="48" height="48" x="-102.987" y="231.592" fill="#fff" color="#000" overflow="visible" style="isolation:auto;mix-blend-mode:normal"/></g><g transform="translate(-123 -1360.362)"><path fill="#242730" style="line-height:normal;text-indent:0;text-align:start;text-decoration-line:none;text-decoration-style:solid;text-decoration-color:#000;text-transform:none;block-progression:tb;isolation:auto;mix-blend-mode:normal" d="m 149,1362.3622 c -0.554,0 -1,0.446 -1,1 l 0,1 c 0,0.554 0.446,1 1,1 l 10.0039,0 0.016,6.4844 c 0,0.8253 0.6708,1.4938 1.4961,1.4961 l 6.4844,0.017 0,28.502 c 0,0.8569 -0.6431,1.5 -1.5,1.5 l -23,0 c -0.857,0 -1.5,-0.6431 -1.5,-1.5 l 0,-1.5 c 0,-0.554 -0.446,-1 -1,-1 l -1,0 c -0.554,0 -1,0.446 -1,1 l 0,1.5 c 0,2.4671 2.0329,4.5 4.5,4.5 l 23,0 c 2.467,0 4.5,-2.0329 4.5,-4.5 l 0,-30.4863 c -1e-4,-0.3978 -0.1582,-0.7793 -0.4395,-1.0606 l -7.5137,-7.5136 c -0.2812,-0.2814 -0.6627,-0.4394 -1.0605,-0.4395 z m -11,21 c 0,0.554 0.446,1 1,1 l 1,0 c 0.554,0 1,-0.446 1,-1 l 0,-10 c 0,-0.554 -0.446,-1 -1,-1 l -1,0 c -0.554,0 -1,0.446 -1,1 z" color="#000" font-family="sans-serif" font-weight="400" overflow="visible"/><path fill="#11c111" style="line-height:normal;text-indent:0;text-align:start;text-decoration-line:none;text-decoration-style:solid;text-decoration-color:#000;text-transform:none;block-progression:tb;isolation:auto;mix-blend-mode:normal" d="m 142.5,358 c -2.467,0 -4.5,2.0329 -4.5,4.5 l 0,2.5 c 0,0.554 0.446,1 1,1 l 1,0 c 0.554,0 1,-0.446 1,-1 l 0,-2.5 c 0,-0.8569 0.6431,-1.5 1.5,-1.5 l 2.5,0 c 0.554,0 1,-0.446 1,-1 l 0,-1 c 0,-0.554 -0.446,-1 -1,-1 l -2.5,0 z M 127,382 c -1.10801,0 -2,0.892 -2,2 l 0,7 c 0,1.108 0.89199,2 2,2 l 25,0 c 1.10801,0 2,-0.892 2,-2 l 0,-7 c 0,-1.108 -0.89199,-2 -2,-2 l -25,0 z m 4.74219,2.73047 4.00976,0 c 0.48698,0 0.50629,0.11413 0.52539,0.58203 l 0.0469,1.39453 0,0.0371 c 0,0.3724 -0.13323,0.55469 -0.4961,0.55469 -0.28645,0 -0.46679,-0.19963 -0.46679,-0.39063 0,-0.029 -0.0117,-0.087 -0.0117,-0.20117 l -0.0273,-0.94531 -0.97461,0 0,3.47461 0.7832,0 c 0.3915,0 0.58203,0.12412 0.58203,0.51562 0,0.3629 -0.18098,0.51563 -0.58203,0.51563 l -2.76953,0 c -0.40104,0 -0.5918,-0.15273 -0.5918,-0.51563 0,-0.3915 0.2003,-0.51562 0.5918,-0.51562 l 0.7832,0 0,-3.47461 -0.97265,0 -0.0293,0.94531 0,0.11524 c 0,0.2961 -0.17274,0.47656 -0.46875,0.47656 -0.36285,0 -0.50586,-0.18229 -0.50586,-0.55469 l 0,-0.0371 0.0488,-1.39453 c 0.0191,-0.4679 0.0384,-0.58203 0.52539,-0.58203 z m 5.78125,0.01 3.82031,0 c 0.39148,0 0.48633,0.095 0.48633,0.42969 l 0,1.04102 c 0,0.4011 -0.1237,0.59179 -0.4961,0.59179 -0.38195,0 -0.50585,-0.20029 -0.50586,-0.59179 l 0,-0.48828 -2.16796,0 0,1.19336 0.81054,0 0,-0.0566 c 0,-0.3533 0.16341,-0.5254 0.47852,-0.5254 0.3533,0 0.48633,0.19249 0.48633,0.58399 l 0,0.96289 c 0,0.3915 -0.12326,0.58398 -0.47657,0.58398 -0.3151,0 -0.47851,-0.16384 -0.47851,-0.49804 l 0,-0.0859 -0.82031,0 0,1.39453 2.16796,0 0,-0.55469 c 2e-5,-0.401 0.13346,-0.58203 0.50586,-0.58203 0.38195,0 0.4961,0.19053 0.4961,0.58203 l 0,1.12696 c 0,0.3341 -0.0948,0.41992 -0.48633,0.41992 l -3.82031,0 c -0.38195,0 -0.57227,-0.13363 -0.57227,-0.51563 0,-0.3246 0.18099,-0.50586 0.4961,-0.50586 l 0.0762,0 0,-3.47461 -0.0664,0 c -0.32466,0 -0.50586,-0.18142 -0.50586,-0.51562 0,-0.3724 0.19032,-0.51563 0.57227,-0.51563 z m 5.81054,0 1.19336,0 c 0.40105,0 0.5918,0.13363 0.5918,0.51563 0,0.3151 -0.16146,0.49662 -0.47656,0.51562 l 0.63086,0.88868 0.61133,-0.88868 c -0.30556,-0.029 -0.45899,-0.21012 -0.45899,-0.51562 0,-0.382 0.18099,-0.51563 0.58203,-0.51563 l 1.04102,0 c 0.40105,0 0.59179,0.13363 0.59179,0.51563 2e-5,0.3437 -0.18185,0.52539 -0.53515,0.52539 -0.0478,0 -0.0851,4.3e-4 -0.13281,-0.01 l -1.16602,1.61329 1.375,1.85156 c 0.0382,0 0.077,-0.01 0.11524,-0.01 0.35329,0 0.53515,0.18169 0.53515,0.52539 0,0.382 -0.19076,0.51563 -0.5918,0.51563 l -1.25195,0 c -0.40105,0 -0.5918,-0.13363 -0.5918,-0.51563 0,-0.3342 0.15235,-0.49662 0.4961,-0.51562 l -0.71485,-1.04102 -0.73632,1.04102 c 0.35331,0.01 0.52539,0.17192 0.52539,0.51562 0,0.382 -0.19075,0.51563 -0.5918,0.51563 l -1.08789,0 c -0.40105,0 -0.58203,-0.13363 -0.58203,-0.51563 0,-0.3437 0.17013,-0.52539 0.52344,-0.52539 0.0382,0 0.077,0.01 0.11523,0.01 l 1.28906,-1.7461 -1.24023,-1.71875 c -0.0382,0 -0.077,0.01 -0.11524,0.01 -0.3533,0 -0.53515,-0.18169 -0.53515,-0.52539 0,-0.382 0.19075,-0.51563 0.59179,-0.51563 z" color="#000" font-family="sans-serif" font-weight="400" overflow="visible" transform="translate(0 1004.362)"/></g></svg>